<?xml version="1.0" encoding="utf-8"?>
<!-- Generator: Adobe Illustrator 27.1.0, SVG Export Plug-In . SVG Version: 6.00 Build 0)  -->
<svg version="1.1" xmlns="http://www.w3.org/2000/svg" xmlns:xlink="http://www.w3.org/1999/xlink" x="0px" y="0px"
	 viewBox="0 0 595.28 841.89" style="enable-background:new 0 0 595.28 841.89;" xml:space="fill">
<style type="text/css">
	.st0{fill:#BEDE69;}
	.st1{fill:#09090B;}
	.st2{fill:#2C5A2E;}
	.st3{fill:#DBDBDB;}
	.st4{fill:#6ABB6B;}
</style>
<g id="Capa_2">
</g>
<g id="Capa_1">
	<path class="st0" d="M91.24,466.8"/>
	<g>
		<path class="st1" d="M191.23,458.62c-0.04-0.88,0.91-1.47,1.69-1.05c10.37,5.56,18.37,9.7,30.82,11.21
			c27.27,3.31,58.81-1.74,78.23-23.6c4.81-6.12,12.63-7.36,19.01-3.2c10.48,6.84,14.12,14.36,10.58,22.25
			c-1.18,2.63-2.64,5.14-4.33,8.24c-0.41,0.75,0.13,1.67,0.98,1.7c13.2,0.35,23.79-4.37,33.52-11.67c2.34-1.75,4.83-3.51,6.59-5.79
			c6.86-8.88,15.45-9.18,25.09-5.77c21.27,7.52,26.89,23.47,13.77,41.88c-23.1,32.39-55.55,49.02-94.62,52.54
			c-31.94,2.88-61.43-5.31-87.4-24.25C203.77,505.52,192.38,484,191.23,458.62z"/>
		<path class="st2" d="M424.26,459.27c0,0-8.7-17.4-34.81-17.4c0,0-43.51,9.04-56.57-21.58c0,0,13.05-21.93,47.86-13.22
			c34.81,8.7,43.51,43.51,43.51,43.51V459.27"/>
		<path class="st3" d="M247.91,317.05l-41.21,2.98c0,0-66.93,53.54-34.77,110.83c14.52,25.86,43.67,39.07,73.23,36.62
			c34.84-2.89,61.8-18.59,65.52-52.21c0.5-4.55-0.66-9.2-3.5-12.8c-3.35-4.24-8.4-11.41-13.46-21.52
			c-8.7-17.4-17.62-43.51-17.62-43.51"/>
		<path class="st1" d="M224.11,363.54c0,0,8.7,26.11,52.21-17.4s-8.7-60.92-26.11-43.51C232.81,320.03,215.4,346.14,224.11,363.54z"
			/>
		<path class="st1" d="M250.21,302.63c0,0-4.63-14.36-28.42,1.52c-23.79,15.88-32.49,33.29-32.49,33.29s19.5-21.78,44.56-15.24
			C258.92,328.73,250.21,302.63,250.21,302.63z"/>
		<path class="st4" d="M424.26,459.27c0,0,52.21-147.94-113.13-156.64c0,0,4.04,56.26,34.81,87.02
			C372.05,415.76,415.56,433.16,424.26,459.27z"/>
		<path class="st0" d="M175.45,457.51"/>
	</g>
</g>
</svg>
